<svg xmlns="http://www.w3.org/2000/svg" width="270" height="73" viewBox="0 0 270 73" fill="none"><path d="M248.045 14.6632L238.363 28.0328L244.096 35.9846L253.778 22.5451L248.098 14.6632H248.045Z" fill="#A0BF38"></path><path d="M253.83 6.78052L259.562 14.6625L265.295 6.78052H253.83Z" fill="#E94B26"></path><path d="M237.821 35.9846L232.089 28.0328L222.424 14.6632H210.96L226.427 35.9846L228.331 38.6061L226.427 35.9846L210.96 57.2362L199.495 73H210.96L222.424 57.2362L232.089 43.8666L237.821 35.9846Z" fill="#00A8A9"></path><path d="M232.089 28.0328L226.426 35.9847L232.089 43.8666L237.821 35.9847L232.089 28.0328Z" fill="#007398"></path><path d="M244.096 35.9839L238.363 43.8658L246.735 55.3829H258.199L244.096 35.9839Z" fill="#A0BF38"></path><path d="M193.937 17.5292C184.046 17.1971 175.762 24.9567 175.447 34.8485C175.43 35.5126 175.447 36.1592 175.5 36.8233C174.923 47.0297 182.717 55.7854 192.924 56.3622C203.13 56.9389 211.886 49.1443 212.463 38.938C212.498 38.2389 212.498 37.5399 212.463 36.8408C213.232 26.984 205.856 18.3506 195.982 17.5991C195.301 17.5467 194.619 17.5292 193.937 17.5641V17.5292ZM193.937 48.7074C187.96 48.7074 185.042 43.6916 185.042 36.7709C185.042 29.8502 188.083 24.8344 193.937 24.8344C199.792 24.8344 203.078 29.9725 203.078 36.8408C203.078 43.7091 199.792 48.7249 193.937 48.7249V48.7074Z" fill="black"></path><path d="M11.2374 28.2069C11.2374 25.7602 13.3871 24.8689 16.4979 24.8689C20.0981 24.9213 23.6633 25.7252 26.9489 27.1933V19.3113C23.4536 18.1054 19.7835 17.4938 16.0785 17.5112C7.42755 17.5112 2.09719 22.1076 2.09719 28.6788C2.09719 40.9823 19.4689 38.6579 19.4689 44.9145C19.4689 47.7282 16.7251 48.7943 12.9676 48.7943C9.38493 48.7594 5.88961 47.6933 2.86616 45.7534L0 52.5693C4.12447 54.981 8.84315 56.2219 13.6143 56.152C21.5486 56.152 28.6092 52.8139 28.6092 44.6873C28.6092 31.7896 11.2374 34.0616 11.2374 28.2069Z" fill="black"></path><path d="M117.425 17.529C112.444 17.896 107.743 20.0107 104.161 23.506C102.395 19.6961 98.4981 17.3367 94.3037 17.529C89.7074 17.7562 85.3208 19.5563 81.8779 22.5972L80.9167 18.4203H73.0872V55.3833H82.4022V29.2907C84.8664 27.1411 87.9772 25.8653 91.2453 25.6556C96.0164 25.6556 96.733 29.2383 96.733 33.5375V55.4007H106.118V30.7413C106.188 30.2694 106.188 29.7801 106.118 29.3082C108.565 27.1586 111.641 25.8653 114.891 25.6731C119.662 25.6731 120.501 29.081 120.501 33.5026V55.4182H129.816V30.8811C130.585 24.3274 125.884 18.4028 119.348 17.6338C118.701 17.5639 118.054 17.529 117.408 17.5639L117.425 17.529Z" fill="black"></path><path d="M154.41 17.4416C151.963 17.4416 149.534 17.8086 147.192 18.5252V0H137.999V53.758C141.722 55.5581 145.811 56.4319 149.936 56.327C162.536 56.327 172.096 48.8645 172.096 35.8969C172.935 26.5644 166.049 18.3329 156.716 17.4941C155.947 17.4242 155.179 17.4067 154.427 17.4416H154.41ZM151.491 48.3752C150.04 48.3927 148.59 48.2004 147.192 47.781V26.3372C148.957 25.5333 150.862 25.1313 152.802 25.1488C158.219 25.1488 162.606 29.518 162.624 34.9182C162.624 35.3377 162.606 35.7746 162.536 36.194C163.2 42.2234 158.849 47.6586 152.802 48.3053C152.365 48.3577 151.928 48.3752 151.473 48.3752H151.491Z" fill="black"></path><path d="M51.2063 41.891L40.5631 18.4199H30.4092L46.9071 53.8974L39.9689 72.9993H49.3538L69.2422 18.8394H59.5077L51.2063 41.891Z" fill="black"></path><path d="M260.943 51.1538C260.943 48.742 262.883 46.7671 265.295 46.7322C267.706 46.7322 269.646 48.6896 269.646 51.0838C269.646 53.4956 267.706 55.453 265.295 55.453C262.883 55.453 260.926 53.5131 260.926 51.1013V51.1538H260.943ZM269.192 51.1538C269.192 49.0041 267.462 47.274 265.312 47.274C263.163 47.274 261.432 49.0041 261.432 51.1538C261.432 53.3034 263.163 55.051 265.312 55.051C267.462 55.051 269.192 53.3209 269.192 51.1712V51.1538ZM263.582 48.8294H265.609C266.57 48.8294 267.287 49.3012 267.287 50.2624C267.322 50.8916 266.885 51.4509 266.273 51.5732L267.462 53.3034H266.448L265.365 51.748H264.403V53.3034H263.565V48.8294H263.582ZM265.557 51.0314C266.099 51.0314 266.448 51.0314 266.448 50.3149C266.448 49.5983 266.081 49.5983 265.557 49.5983H264.421V51.0314H265.557Z" fill="black"></path></svg>